<svg width="320" height="433" viewBox="0 0 320 433" fill="none" xmlns="http://www.w3.org/2000/svg">
<path d="M150.834 262.622C119.087 257.211 93.944 232.519 87.9529 201.069C87.0444 196.369 86.5779 191.513 86.5779 186.552C86.5779 172.312 90.4492 158.97 97.1932 147.513C101.163 140.789 106.114 134.71 111.868 129.487C116.951 124.861 122.663 120.903 128.859 117.761C139.401 112.392 151.342 109.364 163.995 109.364C176.648 109.364 188.884 112.465 199.524 117.965C205.564 121.074 211.146 124.958 216.122 129.479C221.876 134.71 226.827 140.789 230.797 147.513C237.541 158.97 241.412 172.312 241.412 186.552C241.412 191.513 240.946 196.361 240.037 201.061C234.046 232.51 208.912 257.195 177.18 262.622" stroke="#424242" stroke-width="3" stroke-miterlimit="10"/>
<path d="M56.3603 310.726H86.291C82.3297 304.72 68.9726 300.313 53.1029 300.313C37.2332 300.313 23.8597 304.72 19.9066 310.726H43.3552L47.4883 306.613V310.726H56.3685H56.3603Z" fill="#BA9B7E"/>
<path d="M65.2078 289.632L86.3729 310.734C87.8298 303.7 81.5113 291.166 70.2904 279.97C59.0613 268.774 46.4899 262.475 39.4349 263.927L49.7391 274.201L52.661 277.114L56.0167 280.46H61.8604L58.9467 283.373L62.3023 286.719L65.216 289.624L65.2078 289.632Z" fill="#BA9B7E"/>
<path d="M116.796 310.726H86.8656C90.8269 304.72 104.184 300.313 120.054 300.313C135.932 300.313 149.297 304.72 153.25 310.726H138.682H134.548H129.801L125.668 306.613V310.726H120.921H116.796Z" fill="#BA9B7E"/>
<path d="M88.2225 309.086C88.1325 309.184 88.0424 309.281 87.9442 309.379C87.5432 309.771 87.1422 310.122 86.7329 310.424C86.6183 310.514 86.5037 310.595 86.3892 310.669C86.3728 310.685 86.3564 310.693 86.3401 310.693C86.3237 310.709 86.3155 310.718 86.2991 310.726V272.038H90.4241L86.2991 267.917V244.538C92.3147 248.479 96.7344 261.797 96.7344 277.636C96.7344 281.096 96.5216 284.425 96.1287 287.583" fill="#BA9B7E"/>
<path d="M107.948 289.632L86.7827 310.734C85.3258 303.7 91.6442 291.166 102.865 279.97C114.094 268.774 126.666 262.475 133.721 263.927L123.416 274.201L120.495 277.114L117.139 280.46H111.295L114.209 283.373L110.853 286.719L107.94 289.624L107.948 289.632Z" fill="#BA9B7E"/>
<path d="M223.112 310.726H253.043C249.082 304.72 235.725 300.313 219.855 300.313C203.985 300.313 190.612 304.72 186.659 310.726H210.107L214.24 306.613V310.726H223.12H223.112Z" fill="#BA9B7E"/>
<path d="M231.96 289.632L253.125 310.734C254.582 303.7 248.263 291.166 237.042 279.97C225.813 268.774 213.242 262.475 206.187 263.927L216.491 274.201L219.413 277.114L222.769 280.46H228.612L225.699 283.373L229.054 286.719L231.968 289.624L231.96 289.632Z" fill="#BA9B7E"/>
<path d="M283.546 310.726H253.616C257.577 304.72 270.934 300.313 286.804 300.313C302.682 300.313 316.047 304.72 320 310.726H305.432H301.298H296.551L292.418 306.613V310.726H287.671H283.546Z" fill="#BA9B7E"/>
<path d="M254.974 309.086C254.884 309.184 254.794 309.281 254.696 309.379C254.295 309.771 253.894 310.122 253.485 310.424C253.37 310.514 253.256 310.595 253.141 310.669C253.125 310.685 253.108 310.693 253.092 310.693C253.076 310.709 253.067 310.718 253.051 310.726V272.038H257.176L253.051 267.917V244.538C259.067 248.479 263.486 261.797 263.486 277.636C263.486 281.096 263.274 284.425 262.881 287.583" fill="#BA9B7E"/>
<path d="M274.7 289.632L253.535 310.734C252.078 303.7 258.396 291.166 269.617 279.97C280.846 268.774 293.418 262.475 300.473 263.927L290.168 274.201L287.247 277.114L283.891 280.46H278.047L280.961 283.373L277.605 286.719L274.692 289.624L274.7 289.632Z" fill="#BA9B7E"/>
<path d="M183.18 404.26L173.538 176.573L154.542 176.336L144.753 404.26H183.18Z" fill="#BFCBBD" stroke="#424242" stroke-width="3" stroke-miterlimit="10"/>
<path d="M164.11 151.267C164.576 151.267 165.035 151.095 165.362 150.761L165.567 150.557C166.074 150.043 166.229 149.276 165.951 148.607C165.673 147.937 165.018 147.505 164.298 147.505H163.995C163.324 147.505 162.702 147.88 162.399 148.484C162.121 149.039 162.137 149.692 162.456 150.214C162.702 150.728 163.193 151.12 163.75 151.226C163.872 151.25 163.995 151.259 164.118 151.259L164.11 151.267Z" fill="#BFCBBD" stroke="#424242" stroke-width="3" stroke-miterlimit="10"/>
<path d="M162.555 150.427C162.555 150.427 162.58 150.443 162.572 150.451C162.613 150.517 162.662 150.582 162.695 150.655L164.086 153.03C164.503 153.724 164.888 154.36 165.305 154.988C165.886 155.902 166.476 156.8 167.098 157.706C170.347 162.431 174.022 166.919 178.04 171.04C178.679 171.684 179.317 172.321 179.964 172.949C180.504 173.48 181.314 173.61 182.002 173.284L194.81 167.123L190.939 180.791C190.743 181.517 191.005 182.293 191.619 182.733C196.906 186.528 202.733 189.865 208.953 192.664C209.641 192.974 210.451 192.819 210.975 192.281L220.894 182.138L221.942 196.287C221.999 197.054 222.548 197.715 223.301 197.903C230.716 199.739 237.664 200.963 242.935 201.347C242.976 201.347 243.017 201.347 243.058 201.347C243.77 201.347 244.408 200.939 244.695 200.294L250.547 187.336L256.399 200.294C256.718 200.98 257.422 201.396 258.167 201.339C266.793 200.702 277.359 198.009 277.809 197.887C278.554 197.699 279.094 197.054 279.152 196.287L280.207 182.129L290.119 192.273C290.651 192.811 291.453 192.966 292.14 192.656C298.148 189.971 303.828 186.732 309.05 183.019C309.532 182.684 309.811 182.129 309.803 181.542C309.803 180.954 309.5 180.408 309.017 180.081L281.877 161.712L261.359 147.824C261.056 147.628 260.712 147.514 260.352 147.514H164.315C163.832 147.514 163.382 147.701 163.038 148.044L162.842 148.24C162.269 148.819 162.154 149.725 162.58 150.427H162.555Z" fill="#BFCBBD" stroke="#424242" stroke-width="3" stroke-miterlimit="10"/>
<path d="M172.277 144.567L230.895 124.395L204.099 113.493L172.277 144.567Z" fill="#BFCBBD" stroke="#424242" stroke-width="3" stroke-miterlimit="10"/>
<path d="M162.441 150.206C162.162 149.545 162.301 148.761 162.817 148.239L163.013 148.043C163.308 147.75 163.701 147.562 164.11 147.521H164.135C164.184 147.521 164.241 147.521 164.29 147.521H260.327C260.687 147.521 261.039 147.635 261.334 147.831L281.852 161.72C285.085 159.81 287.344 158.317 287.459 158.244C288.097 157.828 288.4 157.036 288.203 156.293L284.57 142.568L297.255 148.933C297.927 149.267 298.737 149.153 299.293 148.639C304.073 144.167 308.395 139.255 312.135 134.04C312.47 133.559 312.56 132.947 312.364 132.4C312.168 131.845 311.709 131.421 311.136 131.274L255.523 116.267C255.187 116.17 254.811 116.186 254.475 116.3L236.035 122.641L230.887 124.411L172.27 144.575L164.348 147.293L164.258 147.333L163.996 147.423L163.693 147.529L163.57 147.57C163.57 147.57 163.529 147.57 163.505 147.595C163.382 147.627 163.267 147.676 163.161 147.733C162.702 147.954 162.351 148.362 162.228 148.868C162.187 149.014 162.162 149.161 162.162 149.316C162.162 149.749 162.31 150.132 162.555 150.443C162.514 150.377 162.481 150.312 162.449 150.239C162.449 150.239 162.449 150.238 162.449 150.222L162.441 150.206Z" fill="#BFCBBD" stroke="#424242" stroke-width="3" stroke-miterlimit="10"/>
<path d="M18.1897 181.542C18.1897 182.13 18.4598 182.685 18.9427 183.019C24.148 186.724 29.8362 189.972 35.8518 192.656C36.5393 192.966 37.3414 192.811 37.8734 192.273L47.7848 182.13L48.8406 196.288C48.8979 197.063 49.4381 197.699 50.1829 197.887C50.633 198.001 61.1992 200.694 69.8256 201.339C70.5704 201.388 71.2825 200.98 71.5935 200.294L77.4454 187.336L83.2973 200.294C83.592 200.931 84.2303 201.347 84.9342 201.347C84.9751 201.347 85.0242 201.347 85.0652 201.347C90.336 200.964 97.2846 199.748 104.634 197.92C105.428 197.716 106.05 196.989 106.05 196.165L107.098 182.13L117.017 192.281C117.541 192.82 118.351 192.966 119.039 192.665C125.259 189.874 131.095 186.528 136.374 182.734C136.988 182.293 137.249 181.518 137.053 180.791L133.182 167.123L145.991 173.284C146.678 173.619 147.488 173.48 148.028 172.949C148.79 172.215 149.526 171.464 150.246 170.714C154.15 166.682 157.743 162.3 160.894 157.698C161.508 156.8 162.106 155.903 162.695 154.972C163.112 154.336 163.522 153.667 163.923 152.998C164.005 152.883 164.111 152.712 164.209 152.533L165.191 150.86C165.191 150.86 165.216 150.819 165.224 150.794C165.249 150.762 165.265 150.737 165.273 150.713L165.535 150.231C165.535 150.231 165.568 150.174 165.576 150.142C165.617 150.076 165.641 150.011 165.666 149.946C165.682 149.921 165.691 149.897 165.699 149.872C165.732 149.782 165.748 149.693 165.764 149.611C165.805 149.415 165.805 149.219 165.764 149.032C165.748 148.942 165.723 148.852 165.699 148.771C165.674 148.689 165.65 148.616 165.601 148.542C165.584 148.485 165.551 148.428 165.511 148.379C165.478 148.33 165.453 148.273 165.412 148.232C165.273 148.044 165.093 147.897 164.888 147.775C164.831 147.734 164.766 147.71 164.7 147.685C164.659 147.661 164.61 147.645 164.569 147.628L164.455 147.587C164.299 147.547 164.144 147.53 163.98 147.53H67.6404C67.2803 147.53 66.9283 147.645 66.6337 147.84L46.1152 161.729L18.9754 180.098C18.4925 180.432 18.1897 180.971 18.1897 181.558V181.542Z" fill="#BFCBBD" stroke="#424242" stroke-width="3" stroke-miterlimit="10"/>
<path d="M165.789 149.301C165.789 149.399 165.781 149.497 165.765 149.595" stroke="#424242" stroke-width="3" stroke-miterlimit="10"/>
<path d="M165.765 149.016C165.781 149.114 165.789 149.211 165.789 149.301C165.789 149.203 165.781 149.105 165.765 149.016Z" fill="#BFCBBD" stroke="#424242" stroke-width="3" stroke-miterlimit="10"/>
<path d="M15.8473 134.025C19.5795 139.239 23.8927 144.152 28.6806 148.623C29.2372 149.137 30.0474 149.26 30.7186 148.917L43.4045 142.552L39.7706 156.278C39.5824 157.02 39.877 157.804 40.5154 158.228C40.63 158.301 42.8889 159.795 46.1217 161.704L66.6403 147.816C66.9431 147.62 67.2869 147.505 67.647 147.505H163.987C164.028 147.505 164.077 147.505 164.109 147.505C164.224 147.505 164.347 147.53 164.453 147.554L164.281 147.497L164.158 147.456L163.987 147.399L156.629 144.87L97.414 124.502L92.2577 122.731L73.4907 116.276C73.1551 116.162 72.7786 116.154 72.4431 116.244L16.8295 131.25C16.2648 131.397 15.8064 131.821 15.6018 132.368C15.4136 132.923 15.4872 133.535 15.8391 134.017L15.8473 134.025Z" fill="#BFCBBD" stroke="#424242" stroke-width="3" stroke-miterlimit="10"/>
<path d="M151.833 170.729L166.377 185.222L167.187 186.03C167.539 186.373 167.997 186.552 168.456 186.552C168.914 186.552 169.372 186.373 169.724 186.03L184.759 171.056C185.447 170.354 185.463 169.236 184.776 168.542C180.904 164.56 177.352 160.235 174.226 155.666C173.62 154.801 173.047 153.936 172.483 153.046C172.073 152.434 171.713 151.83 171.353 151.226L170.011 148.958C169.978 148.884 169.88 148.729 169.782 148.558C169.487 148.093 169.004 147.791 168.464 147.726C167.924 147.66 167.375 147.848 166.983 148.232L166.508 148.713C166.385 148.827 166.287 148.966 166.205 149.113L166.074 149.333L165.264 150.704C165.19 150.835 165.117 150.965 165.035 151.096C164.625 151.773 164.241 152.401 163.84 153.022C163.25 153.936 162.686 154.801 162.088 155.666C159.044 160.113 155.59 164.332 151.817 168.224C151.137 168.918 151.146 170.036 151.833 170.729Z" fill="#EBD099"/>
<path d="M97.4219 124.518L156.637 144.877L124.488 113.493L97.4219 124.518Z" fill="#BFCBBD" stroke="#424242" stroke-width="3" stroke-miterlimit="10"/>
<path d="M147.675 170.729L163.029 186.03C163.381 186.373 163.84 186.552 164.298 186.552C164.756 186.552 165.215 186.373 165.567 186.03L166.377 185.222L151.833 170.729C151.146 170.036 151.137 168.918 151.817 168.224C155.59 164.332 159.044 160.113 162.088 155.666C162.686 154.801 163.25 153.936 163.84 153.022C164.241 152.401 164.625 151.773 165.035 151.096C165.117 150.965 165.19 150.835 165.264 150.704L166.074 149.333L165.853 148.958C165.82 148.884 165.722 148.729 165.624 148.558C165.329 148.093 164.846 147.791 164.298 147.726C163.766 147.66 163.218 147.848 162.825 148.232L162.35 148.713C162.227 148.827 162.129 148.966 162.047 149.113L161.106 150.704C161.032 150.835 160.951 150.965 160.869 151.096C160.468 151.773 160.083 152.401 159.674 153.022C159.093 153.936 158.528 154.801 157.931 155.666C154.886 160.113 151.432 164.332 147.651 168.224C146.972 168.918 146.98 170.036 147.675 170.729Z" fill="#BFCBBD"/>
<path d="M147.676 170.729L163.03 186.03C163.382 186.373 163.84 186.552 164.298 186.552C164.757 186.552 165.223 186.373 165.567 186.03L180.602 171.056C181.297 170.354 181.314 169.236 180.626 168.542C176.755 164.56 173.195 160.235 170.068 155.674C169.463 154.809 168.898 153.936 168.325 153.046C167.916 152.434 167.556 151.83 167.196 151.226L165.853 148.958C165.821 148.893 165.722 148.729 165.624 148.558C165.329 148.093 164.847 147.791 164.306 147.726C163.766 147.66 163.226 147.848 162.833 148.232L162.35 148.713C162.236 148.827 162.129 148.974 162.047 149.121L161.114 150.712C161.041 150.843 160.959 150.973 160.877 151.104C160.468 151.781 160.091 152.41 159.682 153.03C159.101 153.944 158.528 154.809 157.931 155.674C154.886 160.113 151.432 164.34 147.659 168.224C146.98 168.926 146.988 170.044 147.684 170.729H147.676Z" stroke="#424242" stroke-width="3" stroke-miterlimit="10"/>
<path d="M217.587 310.726H247.518C243.556 304.72 230.199 300.313 214.329 300.313C198.46 300.313 185.086 304.72 181.133 310.726H204.582L208.715 306.613V310.726H217.595H217.587Z" stroke="#424242" stroke-width="3" stroke-miterlimit="10"/>
<path d="M226.434 289.632L247.599 310.734C249.056 303.7 242.738 291.166 231.517 279.97C220.288 268.774 207.716 262.475 200.661 263.927L210.966 274.201L213.888 277.114L217.243 280.46H223.087L220.173 283.373L223.529 286.719L226.443 289.624L226.434 289.632Z" stroke="#424242" stroke-width="3" stroke-miterlimit="10"/>
<path d="M278.021 310.726H248.09C252.051 304.72 265.409 300.313 281.278 300.313C297.156 300.313 310.522 304.72 314.475 310.726H299.906H295.773H291.026L286.893 306.613V310.726H282.146H278.021Z" stroke="#424242" stroke-width="3" stroke-miterlimit="10"/>
<path d="M255.384 431L251.21 335.835C252.741 334.448 253.747 332.155 253.747 329.56H251.21C252.741 328.173 253.747 325.88 253.747 323.285H251.21C252.741 321.898 253.747 319.605 253.747 317.01H251.21C252.741 315.622 253.747 313.329 253.747 310.734H241.864C241.864 313.329 242.87 315.622 244.401 317.01H241.864C241.864 319.605 242.87 321.898 244.401 323.285H241.864C241.864 325.88 242.87 328.173 244.401 329.56H241.864C241.864 332.155 242.87 334.448 244.401 335.835L239.629 431H255.393H255.384Z" stroke="#424242" stroke-width="3" stroke-miterlimit="10"/>
<path d="M249.449 309.086C249.359 309.184 249.269 309.281 249.171 309.379C248.77 309.771 248.369 310.122 247.959 310.424C247.845 310.514 247.73 310.595 247.616 310.669C247.599 310.685 247.583 310.693 247.567 310.693C247.55 310.709 247.542 310.718 247.526 310.726V272.038H251.651L247.526 267.917V244.538C253.541 248.479 257.961 261.797 257.961 277.636C257.961 281.096 257.748 284.425 257.355 287.583" stroke="#424242" stroke-width="3" stroke-miterlimit="10"/>
<path d="M269.174 289.632L248.009 310.734C246.552 303.7 252.871 291.166 264.092 279.97C275.321 268.774 287.892 262.475 294.947 263.927L284.643 274.201L281.721 277.114L278.365 280.46H272.522L275.435 283.373L272.08 286.719L269.166 289.624L269.174 289.632Z" stroke="#424242" stroke-width="3" stroke-miterlimit="10"/>
<path d="M50.247 310.726H80.1777C76.2164 304.72 62.8594 300.313 46.9896 300.313C31.1199 300.313 17.7464 304.72 13.7933 310.726H37.2419L41.3751 306.613V310.726H50.2552H50.247Z" stroke="#424242" stroke-width="3" stroke-miterlimit="10"/>
<path d="M59.1024 289.632L80.2675 310.734C81.7243 303.7 75.4059 291.166 64.1849 279.97C52.9558 268.774 40.3845 262.475 33.3294 263.927L43.6337 274.201L46.5556 277.114L49.9112 280.46H55.7549L52.8412 283.373L56.1969 286.719L59.1106 289.624L59.1024 289.632Z" stroke="#424242" stroke-width="3" stroke-miterlimit="10"/>
<path d="M110.691 310.726H80.7601C84.7214 304.72 98.0785 300.313 113.948 300.313C129.826 300.313 143.191 304.72 147.145 310.726H132.576H128.443H123.696L119.563 306.613V310.726H114.816H110.691Z" stroke="#424242" stroke-width="3" stroke-miterlimit="10"/>
<path d="M88.0524 431L83.8783 335.835C85.4088 334.448 86.4155 332.155 86.4155 329.56H83.8783C85.4088 328.173 86.4155 325.88 86.4155 323.285H83.8783C85.4088 321.898 86.4155 319.605 86.4155 317.01H83.8783C85.4088 315.622 86.4155 313.329 86.4155 310.734H74.5316C74.5316 313.329 75.5383 315.622 77.0688 317.01H74.5316C74.5316 319.605 75.5383 321.898 77.0688 323.285H74.5316C74.5316 325.88 75.5383 328.173 77.0688 329.56H74.5316C74.5316 332.155 75.5383 334.448 77.0688 335.835L72.2972 431H88.0605H88.0524Z" stroke="#424242" stroke-width="3" stroke-miterlimit="10"/>
<path d="M82.1092 309.086C82.0192 309.184 81.9291 309.281 81.8309 309.379C81.4299 309.771 81.0289 310.122 80.6196 310.424C80.5051 310.514 80.3905 310.595 80.2759 310.669C80.2595 310.685 80.2431 310.693 80.2268 310.693C80.2104 310.709 80.2022 310.718 80.1859 310.726V272.038H84.3108L80.1859 267.917V244.538C86.2015 248.479 90.6211 261.797 90.6211 277.636C90.6211 281.096 90.4083 284.425 90.0154 287.583" stroke="#424242" stroke-width="3" stroke-miterlimit="10"/>
<path d="M101.842 289.632L80.6772 310.734C79.2203 303.7 85.5388 291.166 96.7597 279.97C107.989 268.774 120.56 262.475 127.615 263.927L117.311 274.201L114.389 277.114L111.033 280.46H105.19L108.103 283.373L104.748 286.719L101.834 289.624L101.842 289.632Z" stroke="#424242" stroke-width="3" stroke-miterlimit="10"/>
<path d="M297.534 38.0033H312.479C312.479 33.8905 309.131 30.553 305.006 30.553C304.556 30.553 304.122 30.5856 303.705 30.6672C303.705 30.6346 303.705 30.5938 303.705 30.553C303.705 26.4402 300.357 23.1027 296.232 23.1027C294.923 23.1027 293.687 23.4373 292.623 24.033V23.9758C292.623 18.0841 287.851 13.3022 281.95 13.2614C279.47 9.29557 275.051 6.66797 270.026 6.66797C263.683 6.66797 258.314 10.8542 256.57 16.6153C251.152 17.1702 246.929 21.7318 246.929 27.2807C246.929 33.1969 251.741 38.0033 257.683 38.0033H297.534Z" fill="#B3A8BD"/>
<path d="M291.591 38.0033H306.527C306.527 33.8905 303.18 30.553 299.055 30.553C298.605 30.553 298.171 30.5856 297.754 30.6672C297.754 30.6346 297.754 30.5938 297.754 30.553C297.754 26.4402 294.406 23.1027 290.281 23.1027C288.972 23.1027 287.736 23.4373 286.672 24.033V23.9758C286.672 18.0841 281.9 13.3022 275.999 13.2614C273.519 9.29557 269.1 6.66797 264.074 6.66797C257.731 6.66797 252.362 10.8542 250.619 16.6153C245.201 17.1702 240.978 21.7318 240.978 27.2807C240.978 33.1969 245.79 38.0033 251.732 38.0033H291.591Z" stroke="#424242" stroke-width="3" stroke-miterlimit="10"/>
<path d="M241.109 404.259H86.8726" stroke="#424242" stroke-width="3" stroke-miterlimit="10"/>
<path d="M276.336 310.727V338.039" stroke="#424243" stroke-width="3" stroke-linecap="round" stroke-linejoin="round"/>
<path d="M219.273 310.727V338.039" stroke="#424243" stroke-width="3" stroke-linecap="round" stroke-linejoin="round"/>
<path d="M109.004 310.727V338.039" stroke="#424243" stroke-width="3" stroke-linecap="round" stroke-linejoin="round"/>
<path d="M51.9414 310.727V338.039" stroke="#424243" stroke-width="3" stroke-linecap="round" stroke-linejoin="round"/>
<path d="M163.996 404.259V308.303" stroke="#424242" stroke-width="3" stroke-miterlimit="10"/>
<path d="M163.996 273.01V252.34" stroke="#424242" stroke-width="3" stroke-miterlimit="10"/>
<path d="M46.2287 349.773L51.8924 338.039L57.6543 349.953L46.2287 349.773Z" stroke="#424242" stroke-width="3" stroke-miterlimit="10"/>
<path d="M46.2287 372.508L51.8924 360.773L57.6543 372.687L46.2287 372.508Z" stroke="#424242" stroke-width="3" stroke-miterlimit="10"/>
<path d="M46.2287 395.25L51.8924 383.508L57.6543 395.422L46.2287 395.25Z" stroke="#424242" stroke-width="3" stroke-miterlimit="10"/>
<path d="M103.292 349.773L108.947 338.039L114.709 349.953L103.292 349.773Z" stroke="#424242" stroke-width="3" stroke-miterlimit="10"/>
<path d="M103.292 372.508L108.947 360.773L114.709 372.687L103.292 372.508Z" stroke="#424242" stroke-width="3" stroke-miterlimit="10"/>
<path d="M103.292 395.25L108.947 383.508L114.709 395.422L103.292 395.25Z" stroke="#424242" stroke-width="3" stroke-miterlimit="10"/>
<path d="M213.561 349.773L219.224 338.039L224.986 349.953L213.561 349.773Z" stroke="#424242" stroke-width="3" stroke-miterlimit="10"/>
<path d="M213.561 372.508L219.224 360.773L224.986 372.687L213.561 372.508Z" stroke="#424242" stroke-width="3" stroke-miterlimit="10"/>
<path d="M213.561 395.25L219.224 383.508L224.986 395.422L213.561 395.25Z" stroke="#424242" stroke-width="3" stroke-miterlimit="10"/>
<path d="M270.623 349.773L276.287 338.039L282.049 349.953L270.623 349.773Z" stroke="#424242" stroke-width="3" stroke-miterlimit="10"/>
<path d="M270.623 372.508L276.287 360.773L282.049 372.687L270.623 372.508Z" stroke="#424242" stroke-width="3" stroke-miterlimit="10"/>
<path d="M270.623 395.25L276.287 383.508L282.049 395.422L270.623 395.25Z" stroke="#424242" stroke-width="3" stroke-miterlimit="10"/>
<path d="M164.11 49.7784C163.823 49.0929 163.226 48.4238 162.817 47.7954C161.483 45.7391 160.157 43.6745 158.855 41.5937C157.775 39.8555 156.85 37.5299 155.443 36.0365C154.428 34.9512 152.873 35.0981 151.522 35.3756C146.497 36.3793 141.734 39.268 137.175 41.4876C134.245 42.9156 131.282 44.3926 128.18 45.429C124.841 46.5469 121.289 46.9713 117.778 47.0284C113.62 47.1018 109.339 46.7591 105.272 45.8288C104.584 45.6738 104.339 52.3978 104.33 52.9527C104.314 53.7769 103.839 59.8563 104.961 60.1174C114.054 62.1819 123.646 61.7739 132.19 57.9631C137.363 55.6537 142.323 52.814 147.618 50.7739C149.329 50.1129 151.342 49.3132 153.225 49.4683C155.009 49.6152 155.402 50.8555 156.236 52.2509C156.67 52.9772 157.129 53.6871 157.571 54.4052C157.39 54.9601 157.21 55.5232 157.03 56.0781C157.03 56.0862 157.022 56.0944 157.014 56.1026L155.508 60.7131C155.148 61.8229 155.614 63.0224 156.629 63.6018L162.94 67.2086C163.709 67.6493 164.65 67.6411 165.419 67.1923L171.509 63.6181C172.515 63.0306 172.966 61.8147 172.597 60.7131L171.46 57.196C171.46 57.196 171.46 57.196 171.468 57.196C171.132 56.1678 170.78 55.1478 170.461 54.1196C170.486 54.087 170.51 54.0462 170.527 54.0135C171.304 52.765 172.123 50.3333 173.547 49.7213C175.02 49.0848 176.992 49.7376 178.416 50.1946C183.638 51.8756 188.483 54.7316 193.419 57.0818C198.886 59.6849 204.198 61.3741 210.311 61.5046C214.469 61.5944 218.75 61.268 222.825 60.3622C223.939 60.1174 223.75 54.1115 223.767 53.2383C223.775 52.7161 223.734 45.9431 223.136 46.0818C213.773 48.1627 204.099 47.567 195.375 43.5684C190.259 41.2183 185.34 38.3704 180.061 36.3874C178.425 35.7754 176.428 34.992 174.635 35.2613C172.941 35.5143 172.393 36.9913 171.599 38.3132C170.289 40.5083 168.906 42.6627 167.523 44.8006C166.541 46.3266 164.912 48.0647 164.274 49.7621H164.118L164.11 49.7784Z" fill="#434343" stroke="#424242" stroke-width="3" stroke-miterlimit="10"/>
<path d="M163.996 109.364V67.29" stroke="#424242" stroke-width="3" stroke-miterlimit="10"/>
<path d="M1.99955 27.3947C2.51517 32.9518 4.99506 37.9459 8.74356 41.6751C12.9668 45.8939 18.8187 48.497 25.2681 48.497C31.7174 48.497 37.5612 45.8858 41.7925 41.6751C46.0239 37.4562 48.6348 31.6298 48.6348 25.1996C48.6348 18.7693 46.0157 12.9429 41.7925 8.72404C38.0522 4.99481 33.0433 2.52226 27.4697 2C27.5433 2.7181 27.5761 3.46068 27.5761 4.1951C27.5761 10.6254 24.957 16.4518 20.7338 20.6706C16.5025 24.8895 10.6587 27.4926 4.20935 27.4926C3.46456 27.4926 2.72795 27.4599 2.00772 27.3865L1.99955 27.3947Z" fill="#BFCBBD" stroke="#424242" stroke-width="3" stroke-miterlimit="10"/>
<path d="M58.3825 55.6048H69.9062C69.9062 52.4305 67.3281 49.86 64.1444 49.86C63.8006 49.86 63.465 49.8845 63.1377 49.9498C63.1377 49.9253 63.1377 49.8927 63.1377 49.86C63.1377 46.6857 60.5595 44.1152 57.3758 44.1152C56.3691 44.1152 55.4115 44.3764 54.5931 44.8333V44.7925C54.5931 40.2473 50.9182 36.5589 46.3595 36.5262C44.4443 33.4743 41.0395 31.4424 37.1601 31.4424C32.2658 31.4424 28.1326 34.6738 26.7822 39.113C22.6081 39.5373 19.3506 43.0626 19.3506 47.3385C19.3506 51.9083 23.0664 55.6048 27.6415 55.6048H58.3825Z" fill="#BFCBBD" stroke="#424242" stroke-width="3" stroke-miterlimit="10"/>
</svg>
