<svg width="289" height="394" viewBox="0 0 289 394" fill="none" xmlns="http://www.w3.org/2000/svg">
<path d="M175.389 3.28516V142.24C188.906 142.394 202.424 143.735 215.941 147.03V8.08285C202.424 4.78746 188.906 3.44669 175.389 3.28516Z" fill="#E9E4D9"/>
<path d="M10.918 8.08315V147.03C65.7362 160.406 120.554 141.595 175.389 142.241V3.28546C120.554 2.64738 65.7362 21.4666 10.918 8.08315Z" fill="#5F997F"/>
<path d="M1.99995 16.3945V155.35C70.3277 172.012 138.68 138.687 207.023 155.35V16.3945C138.68 -0.268224 70.3277 33.0814 1.99995 16.3945Z" stroke="#424242" stroke-width="3" stroke-miterlimit="10"/>
<path d="M63.9433 69.3869C63.2839 65.1223 62.6969 60.8496 61.941 56.6012C61.5952 54.6385 61.2173 52.6758 60.8313 50.7212C60.6946 50.0508 59.9065 49.445 59.223 49.5096C58.4591 49.5823 58.2741 50.2931 58.4028 50.9312C59.9307 58.5315 60.96 66.2127 62.1822 73.8696C62.4074 75.3073 62.6486 76.7369 62.8497 78.1827C62.9462 78.9015 63.4528 79.58 64.1926 79.7092C64.8279 79.8223 65.4872 79.3377 65.3908 78.6431C64.9726 75.5496 64.4258 72.4723 63.9433 69.3869Z" fill="#424242"/>
<path d="M87.3614 78.1827C87.4579 78.9015 87.9645 79.58 88.7043 79.7092C89.3396 79.8223 89.999 79.3377 89.9025 78.6431C89.4843 75.5496 88.9375 72.4723 88.455 69.3869C87.7956 65.1223 87.2086 60.8496 86.4527 56.6012C86.1069 54.6385 85.729 52.6758 85.343 50.7212C85.2063 50.0508 84.4183 49.445 83.7347 49.5096C82.9708 49.5823 82.7858 50.2931 82.9145 50.9312C84.4424 58.5315 85.4717 66.2127 86.694 73.8696C86.9191 75.3073 87.1604 76.7369 87.3614 78.1827Z" fill="#424242"/>
<path d="M112.137 78.1827C112.233 78.9015 112.74 79.58 113.48 79.7092C114.115 79.8223 114.774 79.3377 114.678 78.6431C114.26 75.5496 113.713 72.4723 113.23 69.3869C112.571 65.1223 111.984 60.8496 111.228 56.6012C110.882 54.6385 110.504 52.6758 110.118 50.7212C109.982 50.0508 109.194 49.445 108.51 49.5096C107.746 49.5823 107.561 50.2931 107.69 50.9312C109.218 58.5315 110.247 66.2127 111.469 73.8696C111.695 75.3073 111.936 76.7369 112.137 78.1827Z" fill="#424242"/>
<path d="M50.6836 76.9464C49.7026 77.5522 48.617 77.1241 47.837 76.3972C46.9604 75.5895 46.4619 74.5718 45.9633 73.4895C45.2717 71.9791 44.7008 70.4122 44.2022 68.8291C43.969 68.086 43.8163 67.2783 43.4705 66.5756C43.1247 65.873 42.216 64.8633 41.3315 65.3641C40.7525 65.6872 40.455 66.4868 40.1574 67.0441C39.7473 67.8195 39.3774 68.6272 39.0799 69.4591C38.2436 71.8014 37.7772 74.6203 38.8145 76.9787C39.3935 78.2953 40.4791 79.2645 41.9185 79.4341C43.6313 79.636 45.2557 79.0383 46.5986 77.9883C46.7192 78.1176 46.8398 78.2468 46.9604 78.3679C48.2069 79.5553 50.1931 80.5326 51.8496 79.5956C52.4286 79.2645 52.887 78.8203 53.2327 78.2953C53.6509 78.8041 54.1495 79.2322 54.7526 79.5229C56.779 80.5245 59.2718 79.5553 59.6578 77.221C59.9473 75.4764 59.5935 73.6349 59.312 71.9145C58.926 69.5237 58.5481 67.133 58.1862 64.7422C57.4786 60.0818 56.6021 55.4457 55.6693 50.8257C55.5326 50.1553 54.7445 49.5495 54.061 49.6141C53.2971 49.6868 53.1121 50.3976 53.2408 51.0357C53.9725 54.6622 54.6641 58.2968 55.2672 61.9476C55.6371 64.1687 55.9266 66.406 56.2965 68.6353C56.6182 70.5656 57.0122 72.496 57.165 74.4506C57.2454 75.4764 57.3821 77.5279 55.6854 77.2614C55.5085 77.2372 55.42 77.2129 55.2592 77.1241C55.5165 77.2614 55.0421 76.9222 55.1627 77.0353C55.0099 76.8899 54.8571 76.6718 54.6802 76.3487C54.2379 75.5491 53.9886 74.6364 53.8117 73.7479C53.4016 71.6803 53.2488 69.5318 52.9674 67.4399C52.7342 65.6953 52.501 63.9506 52.2436 62.2141C51.6807 58.4018 51.0053 54.6137 50.2494 50.8337C50.1127 50.1633 49.3246 49.5576 48.6411 49.6222C47.8772 49.6949 47.6922 50.4057 47.8209 51.0437C48.5205 54.5653 49.1477 58.0383 49.6704 61.5922C49.9518 63.4822 50.2092 65.3803 50.4585 67.2783C50.7721 69.6287 50.9329 72.0599 51.4717 74.3699C51.5521 74.7172 51.6486 75.0806 51.7692 75.436C51.6003 76.0741 51.2304 76.6153 50.6836 76.9464ZM40.7284 76.5183C40.7284 76.5183 40.7364 76.5183 40.7444 76.5345C40.7364 76.5345 40.7284 76.5264 40.7203 76.5183H40.7284ZM44.9421 75.7026C43.9449 76.486 42.3447 77.0353 41.0822 76.6799C41.0661 76.6799 40.8972 76.6153 40.8892 76.6153C40.849 76.591 40.7846 76.5426 40.7364 76.5183C40.7364 76.5103 40.7123 76.486 40.6479 76.4295C40.6238 76.4053 40.6077 76.3972 40.5997 76.3891C40.5997 76.3729 40.5997 76.3487 40.5836 76.3164C40.5193 76.0499 40.5997 76.4053 40.5515 76.2437C40.5193 76.1387 40.4871 76.0256 40.455 75.9206C40.4389 75.8641 40.4308 75.8399 40.4308 75.8237C40.4308 75.8076 40.4308 75.7833 40.4228 75.7268C40.3987 75.5895 40.3906 75.4441 40.3745 75.3068C40.2941 74.3456 40.455 73.1583 40.7686 72.1003C40.9937 71.3249 41.2913 70.5656 41.629 69.8387C41.7979 69.4672 41.9828 69.1037 42.1758 68.7483C42.3366 69.2733 42.5135 69.7983 42.6905 70.3153C43.0764 71.4218 43.4946 72.5122 43.953 73.5783C44.2585 74.2891 44.5882 74.9999 44.9662 75.6864C44.9581 75.6864 44.9501 75.6945 44.9421 75.7026Z" fill="#424242"/>
<path d="M128.147 49.9777C125.655 53.4669 123.652 57.3115 121.835 61.1884C120.91 63.1511 120.001 65.1542 119.221 67.1896C117.694 62.2384 117.01 57.0531 117.203 51.8677C117.227 51.3104 116.495 50.7288 116.101 50.4381C115.949 50.325 114.976 49.695 114.959 50.2119C114.774 55.0581 115.353 59.9123 116.648 64.5807C117.123 66.2931 117.71 67.9569 118.377 69.5965C118.321 69.7742 118.264 69.9519 118.208 70.1296C117.694 71.858 117.187 73.748 117.332 75.5734C117.436 76.9869 118.136 78.0046 119.27 78.8446C120.154 79.5069 121.433 80.0157 122.341 79.103C123.017 78.4246 122.953 77.3342 122.776 76.478C122.526 75.2827 121.964 74.1357 121.473 73.0292C121.192 72.3992 120.918 71.7692 120.653 71.1311C121.489 68.5061 122.639 65.97 123.789 63.4904C125.655 59.4681 127.713 55.4781 130.294 51.8677C130.729 51.2619 128.509 49.4446 128.139 49.9615L128.147 49.9777ZM120.138 77.2696C119.985 77.3988 119.808 77.5038 119.615 77.5523C119.583 77.3665 119.567 77.1727 119.567 76.9384C119.535 75.7673 119.736 74.58 120.017 73.425C120.202 73.8773 120.371 74.3296 120.5 74.798C120.725 75.5977 120.822 76.6638 120.138 77.2696Z" fill="#424242"/>
<path d="M73.9393 79.1277C74.6148 78.4493 74.5505 77.3589 74.3736 76.5027C74.1243 75.3073 73.5614 74.1604 73.0709 73.0539C72.7894 72.4239 72.516 71.7939 72.2507 71.1558C73.087 68.5389 74.2369 65.9947 75.3868 63.507C77.2524 59.4847 79.311 55.4947 81.8923 51.8843C82.3265 51.2785 80.1071 49.4612 79.7372 49.9781C77.2444 53.4674 75.242 57.312 73.4247 61.1889C72.4999 63.1516 71.5913 65.1546 70.8112 67.19C69.2834 62.2389 68.5999 57.0535 68.7929 51.8681C68.817 51.3108 68.0852 50.7293 67.6912 50.4385C67.5384 50.3254 66.5654 49.6954 66.5493 50.2124C66.3643 55.0585 66.9433 59.9127 68.238 64.5812C68.7124 66.2935 69.2995 67.9573 69.9669 69.597C69.9106 69.7747 69.8543 69.9523 69.798 70.13C69.2834 71.8585 68.7768 73.7485 68.9215 75.5739C69.026 76.9873 69.7256 78.005 70.8595 78.845C71.744 79.5073 73.0226 80.0162 73.9313 79.1035L73.9393 79.1277ZM71.728 77.27C71.5752 77.3993 71.3983 77.5043 71.2053 77.5527C71.1731 77.367 71.157 77.1731 71.157 76.9389C71.1249 75.7677 71.3259 74.5804 71.6073 73.4254C71.7923 73.8777 71.9612 74.33 72.0898 74.7985C72.315 75.5981 72.4115 76.6643 71.728 77.27Z" fill="#424242"/>
<path d="M107.585 79.8465C110.183 78.8369 109.346 74.7338 109.033 72.6581C108.478 68.9265 107.907 65.195 107.28 61.4796C106.677 57.9339 106.001 54.3962 105.294 50.8665C105.181 50.285 104.562 49.5177 103.919 49.5742C103.203 49.6308 103.227 50.4869 103.332 50.9958C104.272 55.6804 105.157 60.3731 105.848 65.1062C106.234 67.7473 106.725 70.3804 107.071 73.0296C107.191 73.9261 107.304 74.96 107.248 75.7031C107.199 76.3654 107.031 76.9388 106.411 77.2296C105.937 77.4558 105.342 77.375 104.859 77.2619C104.12 77.0842 103.508 76.7127 102.986 76.1635C102.326 75.4688 101.924 74.6773 101.506 73.805C100.911 72.5611 100.421 71.2769 99.9782 69.9765C99.7611 69.3304 99.5521 68.6842 99.351 68.0381C99.1339 67.3273 98.965 66.6085 98.5067 66.0108C98.1126 65.5019 97.3809 65.0254 96.7295 65.3727C96.1827 65.6635 95.8852 66.4388 95.6118 66.9558C94.502 69.0154 93.6818 71.3496 93.6416 73.7081C93.6095 75.905 94.3493 78.7723 96.8019 79.3619C98.4182 79.7496 100.71 79.2165 101.908 77.8919C103.332 79.4104 105.527 80.6542 107.585 79.8546V79.8465ZM96.0862 76.4865C96.0862 76.4865 96.0862 76.4865 96.0862 76.4946C96.0862 76.4946 96.0862 76.4865 96.0782 76.4785L96.0862 76.4865ZM96.0943 76.5027C96.1103 76.535 96.1184 76.5431 96.0943 76.5027V76.5027ZM97.5819 76.7208C97.0833 76.7692 96.5606 76.7773 96.1907 76.5673C96.1666 76.5511 96.1505 76.5431 96.1425 76.535C96.1023 76.4946 96.0782 76.4785 96.0701 76.4623C96.0621 76.4461 96.046 76.43 96.038 76.4138C96.0299 76.3735 95.9495 76.1958 95.9334 76.1958C95.9013 76.1069 95.8771 76.0181 95.853 75.9212C95.8289 75.8162 95.7887 75.6061 95.7646 75.3073C95.7404 74.9923 95.7324 74.8065 95.7485 74.5965C95.7806 73.9504 95.8691 73.3042 96.0138 72.6662C96.2229 71.7615 96.5526 70.8812 96.9306 70.0412C97.1075 69.6373 97.3085 69.2415 97.5095 68.8538C97.5256 68.8135 97.5497 68.7812 97.5739 68.7408C97.6784 69.08 97.7829 69.4112 97.8955 69.7504C98.2252 70.7438 98.5951 71.7292 98.9811 72.6985C99.3751 73.6758 99.7933 74.6531 100.3 75.5738C99.7048 76.2927 98.4504 76.6319 97.59 76.7208H97.5819Z" fill="#424242"/>
<path d="M122.959 89.5062C121.713 88.5854 120.072 89.595 119.244 90.6612C119.051 90.9115 119.043 91.2023 119.131 91.4931C118.713 91.8646 118.303 92.2523 117.917 92.6481C116.526 94.0938 115.368 95.7658 114.459 97.5508C114.146 98.1646 114.942 99.0612 115.36 99.3681C115.585 99.5296 115.802 99.6992 116.011 99.8769C116.043 99.9092 116.244 100.079 116.269 100.095C116.357 100.176 116.446 100.257 116.534 100.337C117.041 100.814 117.499 101.315 117.845 101.767C118.786 102.995 119.469 104.352 119.911 105.822C118.536 107.065 117.314 108.624 116.55 110.304C115.979 111.556 115.762 112.97 115.802 114.343C115.641 114.343 115.481 114.351 115.312 114.383C114.95 114.456 114.596 114.577 114.218 114.585C113.953 114.585 113.703 114.569 113.454 114.48C113.277 114.415 113.124 114.335 113.076 114.302C112.369 113.842 112.063 113.422 111.749 112.59C111.524 112 110.8 111.387 110.173 111.314C109.594 111.249 109.257 111.645 109.417 112.227C109.996 114.367 108.533 116.37 106.466 116.532C104.906 116.653 106.587 119.189 107.713 119.1C109.047 118.995 110.374 118.478 111.186 117.355C111.548 116.863 111.79 116.33 111.934 115.764C112.594 116.297 113.334 116.709 114.105 116.943C114.837 117.17 115.481 117.121 116.156 117.016C116.212 117.21 116.269 117.396 116.349 117.573C116.574 118.082 117.097 118.575 117.612 118.769C117.925 118.882 118.568 118.987 118.673 118.502C118.842 117.735 118.713 116.887 118.359 116.152C118.351 116.031 118.335 115.91 118.327 115.788C118.271 114.375 118.512 113.026 119.147 111.758C119.903 110.256 121.085 108.867 122.364 107.776C122.565 107.598 122.557 107.227 122.493 107.001C121.648 103.722 119.799 100.838 117.306 98.6008C118.689 96.1938 120.587 94.2473 122.734 92.4785C123.039 92.2281 123.393 91.9777 123.643 91.6708C124.238 90.9277 123.578 89.9504 122.943 89.4819L122.959 89.5062ZM123.208 91.6708C123.208 91.6708 123.208 91.6708 123.2 91.6708C123.305 91.6385 123.313 91.6385 123.208 91.6708Z" fill="#424242"/>
<path d="M97.1072 97.3974C96.3352 97.5428 95.9573 98.4232 96.1744 99.142C97.0428 101.92 97.3484 104.755 97.1474 107.663C97.067 108.842 96.8659 110.248 96.4478 111.484C95.9975 112.816 95.2657 114.052 94.3651 115.118C93.8424 115.74 93.9228 116.661 94.4535 117.259C94.9199 117.784 95.8849 118.074 96.4156 117.452C98.6511 114.819 99.6402 111.702 99.9056 108.301C100.163 105.046 99.8171 101.791 98.8441 98.6655C98.619 97.9385 97.9354 97.252 97.1152 97.4055L97.1072 97.3974Z" fill="#424242"/>
<path d="M94.3637 100.281C94.1064 97.5107 93.246 94.4981 91.6538 92.1881C90.8336 91.0008 88.2201 92.0588 88.6141 93.5127C89.169 95.5642 89.6113 97.6319 89.756 99.7561C89.8525 101.145 89.8525 102.599 89.5389 103.964C89.4022 104.562 89.2092 105.168 88.9358 105.733C88.7026 105.515 88.4453 105.305 88.1477 105.127C86.1856 103.964 83.9742 105.685 83.8777 107.768C83.8456 108.568 84.127 109.44 84.8668 109.836C85.6388 110.24 86.5475 110.135 87.3677 109.877C87.6009 111.274 87.3677 112.841 87.0219 114.028C86.5797 115.579 85.8238 117.025 84.6739 118.163C84.1592 118.68 83.7973 118.963 83.1782 119.367C83.0495 119.456 82.9128 119.537 82.7761 119.617C82.7198 119.65 82.6313 119.706 82.575 119.73C82.3418 119.852 82.1006 119.973 81.8594 120.078C81.3045 120.328 80.4521 120.998 80.7577 121.717C81.0633 122.428 82.1569 122.283 82.7037 122.04C86.0731 120.514 88.7991 117.832 89.957 114.254C90.536 112.453 90.8657 110.046 90.2948 108.059C91.7503 106.573 92.5625 104.497 92.8359 102.365C92.86 102.163 92.868 101.961 92.8841 101.759C93.6641 101.541 94.412 100.96 94.3477 100.281H94.3637Z" fill="#424242"/>
<path d="M81.0087 109.763C80.5986 106.936 79.9553 104.15 79.0707 101.436C78.0414 98.2939 76.6824 95.2731 75.0419 92.4058C74.6881 91.7839 73.8599 91.5982 73.1924 91.6305C72.8467 91.6466 71.6485 91.9293 72.0023 92.5512C74.463 96.8481 76.2723 101.517 77.3338 106.363C77.8806 108.875 78.3068 111.475 78.2424 114.052C78.2183 114.997 78.1861 116.047 77.6635 116.871C77.5991 116.976 77.5267 117.073 77.4463 117.162C77.4142 117.186 77.3257 117.275 77.3016 117.299C77.2373 117.347 77.1729 117.396 77.1086 117.436C77.0764 117.452 77.0041 117.493 76.9397 117.509C76.9076 117.517 76.5537 117.582 76.61 117.574C76.4975 117.582 76.3849 117.574 76.2642 117.582C76.409 117.582 76.3205 117.582 76.2482 117.582C76.1999 117.557 76.1195 117.509 76.0954 117.493C75.9346 117.372 75.7978 117.226 75.6611 117.073C74.8972 116.152 74.7042 114.795 75.1224 113.672C75.3636 113.034 74.6801 112.671 74.1413 112.534C73.699 112.42 72.4044 112.307 72.1712 112.921C71.6967 114.189 71.6646 115.538 72.3159 116.758C72.919 117.88 73.9001 118.753 75.1465 119.076C76.9317 119.544 79.4004 119.375 80.5583 117.711C81.2258 116.758 81.3303 115.498 81.3545 114.367C81.3947 112.824 81.2338 111.29 81.0167 109.771L81.0087 109.763ZM76.1758 117.541C76.1034 117.509 76.1275 117.525 76.1758 117.541V117.541Z" fill="#424242"/>
<path d="M58.1862 104.037C57.4786 99.3767 56.6021 94.7406 55.6693 90.1206C55.5326 89.4502 54.7445 88.8444 54.061 88.909C53.2971 88.9817 53.1121 89.6925 53.2408 90.3306C53.9725 93.9571 54.6641 97.5917 55.2672 101.242C55.6371 103.464 55.9266 105.701 56.2965 107.93C56.6182 109.861 57.0122 111.791 57.165 113.746C57.2454 114.771 57.3821 116.823 55.6854 116.556C55.5085 116.532 55.42 116.508 55.2592 116.419C55.5165 116.556 55.0421 116.217 55.1627 116.33C55.0099 116.185 54.8571 115.967 54.6802 115.644C54.2379 114.844 53.9886 113.931 53.8117 113.043C53.4016 110.975 53.2488 108.827 52.9674 106.735C52.7342 104.99 52.501 103.246 52.2436 101.509C51.6807 97.6967 51.0053 93.9087 50.2494 90.1287C50.1127 89.4583 49.3246 88.8525 48.6411 88.9171C47.8772 88.9898 47.6922 89.7006 47.8209 90.3387C48.5205 93.8602 49.1477 97.3333 49.6704 100.887C49.9518 102.777 50.2092 104.675 50.4585 106.573C50.7721 108.924 50.9329 111.355 51.4717 113.665C51.5521 114.012 51.6486 114.376 51.7692 114.731C51.6003 115.369 51.2304 115.91 50.6836 116.241C49.7026 116.847 48.617 116.419 47.837 115.692C46.9604 114.884 46.4619 113.867 45.9633 112.784C45.2717 111.274 44.7008 109.707 44.2022 108.124C43.969 107.381 43.8163 106.573 43.4705 105.871C43.1247 105.168 42.216 104.158 41.3315 104.659C40.7525 104.982 40.455 105.782 40.1574 106.339C39.7473 107.114 39.3774 107.922 39.0799 108.754C38.2436 111.096 37.7772 113.915 38.8145 116.274C39.3935 117.59 40.4791 118.559 41.9185 118.729C43.6313 118.931 45.2557 118.333 46.5986 117.283C46.7192 117.412 46.8398 117.542 46.9604 117.663C48.2069 118.85 50.1931 119.827 51.8496 118.891C52.4286 118.559 52.887 118.115 53.2327 117.59C53.6509 118.099 54.1495 118.527 54.7526 118.818C56.779 119.819 59.2718 118.85 59.6578 116.516C59.9473 114.771 59.5935 112.93 59.312 111.209C58.926 108.819 58.5481 106.428 58.1862 104.037ZM40.7284 115.813C40.7284 115.813 40.7364 115.813 40.7444 115.829C40.7364 115.829 40.7284 115.821 40.7203 115.813H40.7284ZM44.9421 114.997C43.9449 115.781 42.3447 116.33 41.0822 115.975C41.0661 115.975 40.8972 115.91 40.8892 115.91C40.849 115.886 40.7846 115.837 40.7364 115.813C40.7364 115.805 40.7123 115.781 40.6479 115.724C40.6238 115.7 40.6077 115.692 40.5997 115.684C40.5997 115.668 40.5997 115.644 40.5836 115.611C40.5193 115.345 40.5997 115.7 40.5515 115.539C40.5193 115.434 40.4871 115.321 40.455 115.216C40.4389 115.159 40.4308 115.135 40.4308 115.119C40.4308 115.102 40.4308 115.078 40.4228 115.022C40.3987 114.884 40.3906 114.739 40.3745 114.602C40.2941 113.641 40.455 112.453 40.7686 111.395C40.9937 110.62 41.2913 109.861 41.629 109.134C41.7979 108.762 41.9828 108.399 42.1758 108.043C42.3366 108.568 42.5135 109.093 42.6905 109.61C43.0764 110.717 43.4946 111.807 43.953 112.873C44.2585 113.584 44.5882 114.295 44.9662 114.981C44.9581 114.981 44.9501 114.989 44.9421 114.997Z" fill="#424242"/>
<path d="M63.9433 108.681C63.2839 104.416 62.6969 100.144 61.941 95.8951C61.5952 93.9324 61.2173 91.9697 60.8313 90.0151C60.6946 89.3447 59.9065 88.739 59.223 88.8036C58.4591 88.8763 58.2741 89.587 58.4028 90.2251C59.9307 97.8255 60.96 105.507 62.1822 113.164C62.4074 114.601 62.6486 116.031 62.8497 117.477C62.9462 118.195 63.4528 118.874 64.1926 119.003C64.8279 119.116 65.4872 118.632 65.3908 117.937C64.9726 114.844 64.4258 111.766 63.9433 108.681Z" fill="#424242"/>
<path d="M166.471 11.5879V150.979" stroke="#424242" stroke-width="3" stroke-miterlimit="10"/>
<path d="M214.848 15.2227V230.211" stroke="#424242" stroke-width="3" stroke-miterlimit="10"/>
<path d="M207.023 230.211V15.2227" stroke="#424242" stroke-width="3" stroke-miterlimit="10"/>
<path d="M203.871 9.30247C203.871 5.38517 207.032 2.21094 210.932 2.21094C214.832 2.21094 218 5.38517 218 9.30247C218 13.2198 214.84 16.394 210.94 16.394C207.04 16.394 203.879 13.2198 203.879 9.30247H203.871Z" stroke="#424242" stroke-width="3" stroke-miterlimit="10"/>
<path d="M166.479 150.979V150.56" stroke="#424242" stroke-width="3" stroke-miterlimit="10"/>
<path d="M274.961 236.166C262.752 217.153 243.342 203.173 221.2 199.78C201.025 196.678 182.607 202.994 169.52 215.578C157.799 226.862 150.37 243.18 149.833 262.274C148.695 302.654 178.819 340.144 217.087 346.022C238.611 349.318 258.151 341.914 271.319 327.626C281.561 316.504 287.95 301.209 288.454 283.544C288.828 270.165 285.771 257.111 280.147 245.42" fill="#9BB4B8"/>
<path d="M222.843 342.757C226.062 340.776 228.793 338.828 231.557 336.214" stroke="#424242" stroke-width="3" stroke-miterlimit="10"/>
<path d="M124.393 253.814C122.443 259.757 121.711 265.537 121.516 272.373C120.459 309.928 148.469 344.787 184.055 350.259C194.98 351.931 205.351 350.649 214.504 346.963" stroke="#424242" stroke-width="3" stroke-miterlimit="10"/>
<path d="M153.379 219.376C151.867 220.139 150.388 220.951 148.957 221.844C139.902 227.462 132.928 234.849 128.116 244.965" stroke="#424242" stroke-width="3" stroke-miterlimit="10"/>
<path d="M251.537 238.73C240.19 221.065 222.129 208.06 201.548 204.894C182.788 202.02 165.654 207.881 153.494 219.571C142.585 230.06 135.693 245.241 135.189 262.988C134.132 300.543 162.142 335.402 197.728 340.874C217.756 343.943 235.915 337.058 248.156 323.761C257.682 313.418 263.632 299.195 264.088 282.764C264.429 270.326 261.6 258.182 256.349 247.319" stroke="#424242" stroke-width="3" stroke-miterlimit="10"/>
<path d="M175.812 348.164C175.812 348.164 171.846 354.853 170.236 360.942C168.611 367.031 162.417 386.888 161.003 387.505" stroke="#424242" stroke-width="2.5" stroke-miterlimit="10"/>
<path d="M178.771 348.473C178.771 348.473 177.341 357.955 175.813 365.018C174.285 372.08 170.237 389.583 170.237 389.583" stroke="#424242" stroke-width="2.5" stroke-miterlimit="10"/>
<path d="M180.705 348.164C183.469 349.041 184.087 349.95 184.704 353.23C185.322 356.51 182.705 371.642 182.705 371.642L179.275 388.512L178.771 390.866" stroke="#424242" stroke-width="2.5" stroke-miterlimit="10"/>
<path d="M173.748 346.784C171.7 346.995 168.123 350.567 166.368 354.87C164.628 359.173 161.344 371.025 159.719 374.922C158.077 378.803 155.622 382.18 155.622 382.18" stroke="#424242" stroke-width="2.5" stroke-miterlimit="10"/>
<path d="M177.341 347.645C174.881 347.645 172.886 345.653 172.886 343.196C172.886 340.739 174.881 338.747 177.341 338.747C179.801 338.747 181.795 340.739 181.795 343.196C181.795 345.653 179.801 347.645 177.341 347.645Z" stroke="#424242" stroke-width="2.5" stroke-miterlimit="10"/>
<path d="M217.576 350.275C217.576 350.275 215.219 358.101 214.032 364.287C212.846 370.474 210.895 391.5 209.513 392.214" stroke="#424242" stroke-width="2.5" stroke-miterlimit="10"/>
<path d="M220.535 350.356C220.535 350.356 219.804 359.92 218.779 367.064C217.755 374.208 216.243 392.198 216.243 392.198" stroke="#424242" stroke-width="2.5" stroke-miterlimit="10"/>
<path d="M222.453 349.918C225.266 350.584 225.949 351.46 226.794 354.691C227.639 357.923 226.127 373.201 226.127 373.201L223.916 390.282L223.591 392.669" stroke="#424242" stroke-width="2.5" stroke-miterlimit="10"/>
<path d="M215.414 349.041C213.382 349.398 210.066 353.214 208.635 357.63C207.204 362.046 205.595 378.819 205.27 383.251C204.977 387.457 203.612 391.451 203.612 391.451" stroke="#424242" stroke-width="2.5" stroke-miterlimit="10"/>
<path d="M218.731 349.642C216.271 349.642 214.277 347.65 214.277 345.193C214.277 342.736 216.271 340.744 218.731 340.744C221.191 340.744 223.186 342.736 223.186 345.193C223.186 347.65 221.191 349.642 218.731 349.642Z" stroke="#424242" stroke-width="2.5" stroke-miterlimit="10"/>
<path d="M249.051 325.271C249.051 325.271 246.905 333.161 245.881 339.364C244.857 345.582 243.767 366.446 242.418 367.193" stroke="#424242" stroke-width="2.5" stroke-miterlimit="10"/>
<path d="M252.025 325.287C252.025 325.287 251.538 334.867 250.692 342.043C249.847 349.22 248.807 367.226 248.807 367.226" stroke="#424242" stroke-width="2.5" stroke-miterlimit="10"/>
<path d="M253.911 324.8C256.739 325.401 257.455 326.261 258.381 329.46C259.308 332.658 258.186 347.969 258.186 347.969L256.414 365.099L256.138 367.485" stroke="#424242" stroke-width="2.5" stroke-miterlimit="10"/>
<path d="M241.23 330.434C240.97 331.002 240.727 331.586 240.515 332.203C240.434 332.431 240.369 332.658 240.304 332.869C238.987 337.318 240.792 355.162 239.54 359.188C238.288 363.215 236.175 366.82 236.175 366.82" stroke="#424242" stroke-width="2.5" stroke-miterlimit="10"/>
<path d="M248.091 324.345C248.888 324.849 249.489 324.686 250.497 324.589C252.935 324.345 254.724 322.17 254.496 319.734C254.399 318.662 254.203 318.127 253.439 317.461" stroke="#424242" stroke-width="2.5" stroke-miterlimit="10"/>
<path d="M138.406 318.728C138.406 318.728 139.024 326.618 136.829 332.529C134.635 338.422 127.921 364.238 128.733 365.554" stroke="#424242" stroke-width="2.5" stroke-miterlimit="10"/>
<path d="M135.82 317.266C135.82 317.266 131.48 325.822 128.651 332.463C125.822 339.104 121.271 365.553 121.271 365.553" stroke="#424242" stroke-width="2.5" stroke-miterlimit="10"/>
<path d="M134.422 315.902C131.658 315.025 130.634 315.415 128.228 317.721C125.838 320.042 120.327 333.324 120.327 333.324L116.377 351.687L115.418 353.895" stroke="#424242" stroke-width="2.5" stroke-miterlimit="10"/>
<path d="M140.893 318.792C142.437 320.14 143.299 325.124 142.226 329.638C141.153 334.152 138.828 347.238 137.901 351.346C136.991 355.47 137.04 359.643 137.04 359.643" stroke="#424242" stroke-width="2.5" stroke-miterlimit="10"/>
<path d="M140.048 318.224C137.588 318.224 135.593 316.232 135.593 313.775C135.593 311.318 137.588 309.326 140.048 309.326C142.508 309.326 144.502 311.318 144.502 313.775C144.502 316.232 142.508 318.224 140.048 318.224Z" stroke="#424242" stroke-width="2.5" stroke-miterlimit="10"/>
<path d="M123.516 254.204C123.516 254.204 123.744 262.111 121.256 267.908C118.769 273.688 110.787 299.147 111.535 300.494" stroke="#424242" stroke-width="2.5" stroke-miterlimit="10"/>
<path d="M121.012 252.612C121.012 252.612 116.265 260.942 113.095 267.436C109.925 273.931 104.072 300.12 104.072 300.12" stroke="#424242" stroke-width="2.5" stroke-miterlimit="10"/>
<path d="M119.68 251.184C116.965 250.161 115.908 250.502 113.405 252.694C110.901 254.886 104.74 267.875 104.74 267.875L99.8791 286.027L98.8224 288.187" stroke="#424242" stroke-width="2.5" stroke-miterlimit="10"/>
<path d="M126.003 254.398C127.482 255.827 128.084 260.844 126.799 265.293C125.515 269.742 122.524 282.699 121.402 286.758C120.281 290.817 120.134 294.99 120.134 294.99" stroke="#424242" stroke-width="2.5" stroke-miterlimit="10"/>
<path d="M125.401 253.798C122.941 253.798 120.947 251.806 120.947 249.349C120.947 246.892 122.941 244.9 125.401 244.9C127.861 244.9 129.855 246.892 129.855 249.349C129.855 251.806 127.861 253.798 125.401 253.798Z" stroke="#424242" stroke-width="2.5" stroke-miterlimit="10"/>
<path d="M189.274 277.325C190.103 272.762 192.59 268.2 196.313 264.482C198.15 262.647 201.125 262.647 202.962 264.482C204.799 266.316 204.799 269.288 202.962 271.122C200.621 273.46 199.011 276.318 198.524 278.997C198.312 280.199 198.133 282.407 199.466 283.738C201.531 285.8 206.961 284.923 211.464 280.816L267.452 221.536C269.24 219.653 272.215 219.555 274.101 221.341C275.986 223.127 276.084 226.099 274.296 227.982L219.267 286.271C219.121 286.482 218.958 286.693 218.763 286.872C218.535 287.099 218.308 287.31 218.08 287.521L217.641 287.992C217.332 288.317 216.975 288.593 216.617 288.804C212.244 292.36 207.253 294.227 202.685 294.227C198.93 294.227 195.451 292.977 192.85 290.379C189.664 287.196 188.363 282.439 189.29 277.325H189.274Z" stroke="#424242" stroke-width="3" stroke-miterlimit="10"/>
</svg>
