<svg width="705" height="318" viewBox="0 0 705 318" fill="none" xmlns="http://www.w3.org/2000/svg">
<g clip-path="url(#clip0_3324_7069)">
<path d="M47.1797 235.6L51.6849 319.079" stroke="#434243" stroke-width="3.5" stroke-linecap="round" stroke-linejoin="round"/>
<path d="M10.1137 210.66V214.834C10.1137 218.009 13.2267 220.583 17.0593 220.583C20.8997 220.583 24.0049 218.009 24.0049 214.834V210.66H32.7494V214.834C32.7494 218.009 35.8624 220.583 39.695 220.583C43.5354 220.583 46.6406 218.009 46.6406 214.834V210.66H55.3851V220.583V224.382V230.943C55.3851 233.517 52.8666 235.6 49.7536 235.6H7.00069C3.8877 235.6 1.36914 233.517 1.36914 230.943V224.382V220.583V210.66H10.1137Z" stroke="#434243" stroke-width="3.5" stroke-linecap="round" stroke-linejoin="round"/>
<path d="M645.095 319.633H4.24023L9.59021 235.6" stroke="#434243" stroke-width="3.5" stroke-linecap="round" stroke-linejoin="round"/>
<path d="M90.3164 319.634V300.404H110.183V319.634" stroke="#434243" stroke-width="3.5" stroke-linecap="round" stroke-linejoin="round"/>
<path d="M95.7363 285.325L100.21 277.633L104.762 285.434L95.7363 285.325Z" stroke="#434243" stroke-width="3.5" stroke-linecap="round" stroke-linejoin="round"/>
<path d="M115.744 285.325L120.218 277.633L124.77 285.434L115.744 285.325Z" stroke="#434243" stroke-width="3.5" stroke-linecap="round" stroke-linejoin="round"/>
<path d="M75.7207 285.325L80.1947 277.633L84.7468 285.434L75.7207 285.325Z" stroke="#434243" stroke-width="3.5" stroke-linecap="round" stroke-linejoin="round"/>
<path d="M69.6049 96.1797H26.4297V210.661" stroke="#434243" stroke-width="3.5" stroke-linecap="round" stroke-linejoin="round"/>
<path d="M246.694 196.322H164.129" stroke="#434243" stroke-width="3.5" stroke-linecap="round" stroke-linejoin="round"/>
<path d="M207.656 187.5V191.213" stroke="#434243" stroke-width="3.5" stroke-linecap="round" stroke-linejoin="round"/>
<path d="M196.025 187.5V191.213" stroke="#434243" stroke-width="3.5" stroke-linecap="round" stroke-linejoin="round"/>
<path d="M207.656 175.221V178.926" stroke="#434243" stroke-width="3.5" stroke-linecap="round" stroke-linejoin="round"/>
<path d="M196.025 175.221V178.926" stroke="#434243" stroke-width="3.5" stroke-linecap="round" stroke-linejoin="round"/>
<path d="M229.203 196.306V182.49H215.555" stroke="#434243" stroke-width="3.5" stroke-linecap="round" stroke-linejoin="round"/>
<path d="M215.172 182.219V168.699H201.523" stroke="#434243" stroke-width="3.5" stroke-linecap="round" stroke-linejoin="round"/>
<path d="M201.32 168.387V154.875H186.795V196.346" stroke="#434243" stroke-width="3.5" stroke-linecap="round" stroke-linejoin="round"/>
<path d="M239.818 268.562L233.115 254.652L226.287 268.765L239.818 268.562Z" stroke="#434243" stroke-width="3.5" stroke-linecap="round" stroke-linejoin="round"/>
<path d="M209.815 268.562L203.111 254.652L196.283 268.765L209.815 268.562Z" stroke="#434243" stroke-width="3.5" stroke-linecap="round" stroke-linejoin="round"/>
<path d="M239.818 292.878L233.115 278.969L226.287 293.089L239.818 292.878Z" stroke="#434243" stroke-width="3.5" stroke-linecap="round" stroke-linejoin="round"/>
<path d="M209.815 292.878L203.111 278.969L196.283 293.089L209.815 292.878Z" stroke="#434243" stroke-width="3.5" stroke-linecap="round" stroke-linejoin="round"/>
<path d="M164.129 178.91V319.634" stroke="#434243" stroke-width="3.5" stroke-linecap="round" stroke-linejoin="round"/>
<path d="M179.928 100.127V106.321" stroke="#434243" stroke-width="3.5" stroke-linecap="round" stroke-linejoin="round"/>
<path d="M196.283 100.127V106.321" stroke="#434243" stroke-width="3.5" stroke-linecap="round" stroke-linejoin="round"/>
<path d="M164.129 84.3691H247.226" stroke="#434243" stroke-width="3.5" stroke-linecap="round" stroke-linejoin="round"/>
<path d="M623.287 228.105H247.585L246.975 84.3691" stroke="#434243" stroke-width="3.5" stroke-linecap="round" stroke-linejoin="round"/>
<path d="M247.586 228.104L323.244 317.099L398.715 228.104L476.415 319.634L557.071 228.104L636.304 319.634" stroke="#434243" stroke-width="3.5" stroke-linecap="round" stroke-linejoin="round"/>
<path d="M398.911 297.291L376.51 319.633H422.798L398.911 297.291Z" stroke="#434243" stroke-width="3.5" stroke-linecap="round" stroke-linejoin="round"/>
<path d="M557.305 297.291L534.904 319.633H581.2L557.305 297.291Z" stroke="#434243" stroke-width="3.5" stroke-linecap="round" stroke-linejoin="round"/>
<path d="M633.958 250.446L656.359 228.104H610.062L633.958 250.446Z" stroke="#434243" stroke-width="3.5" stroke-linecap="round" stroke-linejoin="round"/>
<path d="M476.43 250.446L498.831 228.104H452.535L476.43 250.446Z" stroke="#434243" stroke-width="3.5" stroke-linecap="round" stroke-linejoin="round"/>
<path d="M323.268 250.446L345.669 228.104H299.373L323.268 250.446Z" stroke="#434243" stroke-width="3.5" stroke-linecap="round" stroke-linejoin="round"/>
<path d="M69.3379 259.582V28.1699L164.128 28.6068V178.911" stroke="#434243" stroke-width="3.5" stroke-linecap="round" stroke-linejoin="round"/>
<path d="M109.08 26.1416V1.36523H77.4883V26.1416" stroke="#434243" stroke-width="3.5" stroke-linecap="round" stroke-linejoin="round"/>
<path d="M90.8233 125.699H103.377V75.6083H90.8233V125.699Z" fill="#7A807C"/>
<path d="M95.3848 66.8399L101.83 53.4766L108.392 67.0427L95.3848 66.8399Z" stroke="#434243" stroke-width="3.5" stroke-linecap="round" stroke-linejoin="round"/>
<path d="M126.076 66.8399L132.521 53.4766L139.083 67.0427L126.076 66.8399Z" stroke="#434243" stroke-width="3.5" stroke-linecap="round" stroke-linejoin="round"/>
<path d="M126.53 127.221H139.084V77.1298H126.53V127.221Z" stroke="#434243" stroke-width="3.5" stroke-linecap="round" stroke-linejoin="round"/>
<path d="M95.1026 127.221H107.656V77.1298H95.1026V127.221Z" stroke="#434243" stroke-width="3.5" stroke-linecap="round" stroke-linejoin="round"/>
<path d="M164.128 151.35H69.6035V208.844H164.128V151.35Z" stroke="#434243" stroke-width="3.5" stroke-linecap="round" stroke-linejoin="round"/>
<path d="M612.634 183.412C611.304 183.412 610.584 184.965 611.445 185.979C615.27 190.496 622.403 200.52 622.403 212.51C622.403 228.885 601.777 234.993 601.777 269.864C601.777 304.025 631.507 319.089 652.68 319.089H652.719C673.9 319.089 703.622 304.025 703.622 269.864C703.622 235.703 682.997 228.893 682.997 212.51C682.997 200.52 690.13 190.496 693.955 185.979C694.815 184.965 694.096 183.412 692.766 183.412H612.634Z" fill="#CAB7D3" stroke="#434243" stroke-width="3.5" stroke-linecap="round" stroke-linejoin="round"/>
<path d="M622.355 213.805H683.051" stroke="#434243" stroke-width="3.5" stroke-linecap="round" stroke-linejoin="round"/>
<path d="M620.025 221.871H685.375" stroke="#434243" stroke-width="3.5" stroke-linecap="round" stroke-linejoin="round"/>
<path d="M688.276 194.365H617.131" stroke="#434243" stroke-width="3.5" stroke-linecap="round" stroke-linejoin="round"/>
<path d="M605.094 287.33H652.837H652.751H700.65" stroke="#434243" stroke-width="3.5" stroke-linecap="round" stroke-linejoin="round"/>
<path d="M608.668 295.396H696.731" stroke="#434243" stroke-width="3.5" stroke-linecap="round" stroke-linejoin="round"/>
<path d="M629.262 319.635H675.323" stroke="#434243" stroke-width="3.5" stroke-linecap="round" stroke-linejoin="round"/>
<path d="M652.742 258.943C657.631 258.943 657.631 263.741 662.511 263.741C667.392 263.741 667.4 258.943 672.288 258.943C677.177 258.943 677.177 263.741 682.065 263.741C686.954 263.741 686.954 258.943 691.842 258.943C696.731 258.943 698.749 263.741 703.637 263.741" stroke="#434243" stroke-width="3.5" stroke-linecap="round" stroke-linejoin="round"/>
<path d="M652.711 258.943C647.823 258.943 647.823 263.741 642.942 263.741C638.062 263.741 638.054 258.943 633.165 258.943C628.277 258.943 628.277 263.741 623.388 263.741C618.5 263.741 618.5 258.943 613.611 258.943C608.723 258.943 606.885 263.741 601.996 263.741" stroke="#434243" stroke-width="3.5" stroke-linecap="round" stroke-linejoin="round"/>
<path d="M652.711 274.459C657.803 274.459 657.803 279.257 662.887 279.257C667.971 279.257 667.979 274.459 673.071 274.459C678.162 274.459 678.162 279.257 683.254 279.257C688.346 279.257 688.346 274.459 693.438 274.459C698.53 274.459 697.724 279.257 702.816 279.257" stroke="#434243" stroke-width="3.5" stroke-linecap="round" stroke-linejoin="round"/>
<path d="M652.687 274.459C647.595 274.459 647.595 279.257 642.511 279.257C637.427 279.257 637.419 274.459 632.328 274.459C627.236 274.459 627.236 279.257 622.144 279.257C617.052 279.257 617.052 274.459 611.96 274.459C606.868 274.459 607.674 279.257 602.582 279.257" stroke="#434243" stroke-width="3.5" stroke-linecap="round" stroke-linejoin="round"/>
<path d="M132.662 259.582V169.869H101.07V259.582" fill="#CAB7D3"/>
<path d="M132.662 259.582V169.869H101.07V259.582" stroke="#434243" stroke-width="3.5" stroke-linecap="round" stroke-linejoin="round"/>
<path d="M164.128 259.582H48.8145" stroke="#434243" stroke-width="3.5" stroke-linecap="round" stroke-linejoin="round"/>
</g>
<defs>
<clipPath id="clip0_3324_7069">
<rect width="705" height="321" fill="white"/>
</clipPath>
</defs>
</svg>
