<svg width="88" height="64" viewBox="0 0 88 64" fill="none" xmlns="http://www.w3.org/2000/svg">
<g id="Layer_1" clipPath="url(#clip0_7001_4434)">
<g id="Group">
<path id="Vector" d="M12.7371 50.923C12.1259 50.923 11.6157 51.0139 11.2065 51.1907L6.77148 63.8089H9.37291L10.4236 60.672H14.8384L15.9295 63.8089H18.6471L14.5353 52.105C14.2777 51.317 13.6817 50.918 12.7371 50.918V50.923ZM10.9186 58.7626L12.6563 53.3123L14.3383 58.7626H10.9136H10.9186Z" fill="#424242"/>
<path id="Vector_2" d="M26.5416 61.6872H22.8137V52.413C22.8137 51.9281 22.6672 51.5593 22.3742 51.3068C22.0813 51.0491 21.6519 50.9229 21.0912 50.9229C20.8892 50.9229 20.581 50.9532 20.1719 51.0188V63.8087H28.0519C28.0772 63.7582 28.0923 63.5056 28.0923 63.046C28.0923 62.1418 27.5771 61.6872 26.5466 61.6872H26.5416Z" fill="#424242"/>
<path id="Vector_3" d="M33.5946 50.8818C32.3823 50.8818 31.1851 50.9576 29.998 51.1091V63.8081H34.0694C35.3171 63.8081 36.398 63.5454 37.3123 63.0252C38.2216 62.5049 38.9288 61.7371 39.4238 60.7319C39.9188 59.7267 40.1714 58.5447 40.1714 57.196C40.1714 55.1047 39.6208 53.5338 38.5196 52.473C37.4184 51.4122 35.7767 50.8869 33.5946 50.8869V50.8818ZM36.5799 60.7117C35.9687 61.4391 35.0039 61.8028 33.6906 61.8028H32.6399V52.9882C33.049 52.9478 33.4279 52.9327 33.7865 52.9327C35.0342 52.9327 35.9687 53.2863 36.5799 53.9934C37.1911 54.7006 37.4992 55.7816 37.4992 57.2364C37.4992 58.8326 37.1962 59.9893 36.5799 60.7167V60.7117Z" fill="#424242"/>
<path id="Vector_4" d="M43.4447 50.9229C43.2427 50.9229 42.9345 50.9532 42.5254 51.0188V63.8087H45.147V52.413C45.147 51.4179 44.5813 50.9229 43.4447 50.9229Z" fill="#424242"/>
<path id="Vector_5" d="M55.8804 56.9991C56.3098 56.3475 56.522 55.5696 56.522 54.6654C56.522 53.3773 56.0825 52.4226 55.2137 51.8064C54.3398 51.1901 52.9911 50.877 51.1676 50.877C50.0058 50.877 48.8793 50.9426 47.7832 51.0689V63.8032H50.42V58.9843H51.4707L53.6528 62.6919C53.9205 63.1516 54.2135 63.485 54.5317 63.6871C54.85 63.8891 55.244 63.9901 55.7188 63.9901C56.2441 63.9901 56.7493 63.8841 57.2493 63.6669L54.0923 58.3882C54.855 58.1054 55.4511 57.6406 55.8804 56.9941V56.9991ZM53.1275 56.6203C52.6981 57.0143 52.092 57.2113 51.304 57.2113H50.4048V52.7964C50.521 52.7813 50.6574 52.7712 50.8241 52.756C50.9908 52.7409 51.1878 52.7358 51.4151 52.7358C52.2182 52.7358 52.8092 52.9126 53.1931 53.2713C53.577 53.6299 53.769 54.1755 53.769 54.9129C53.769 55.6504 53.5568 56.2212 53.1275 56.6152V56.6203Z" fill="#424242"/>
<path id="Vector_6" d="M63.7293 50.923C63.1181 50.923 62.6079 51.0139 62.1987 51.1907L57.7637 63.8089H60.3651L61.4158 60.672H65.8306L66.9217 63.8089H69.6393L65.5275 52.105C65.2699 51.317 64.6739 50.918 63.7293 50.918V50.923ZM61.9158 58.7626L63.6535 53.3123L65.3356 58.7626H61.9108H61.9158Z" fill="#424242"/>
<path id="Vector_7" d="M79.5652 50.9229C79.3076 50.9229 78.9893 50.9532 78.6105 51.0188V56.2015H73.7915V52.413C73.7915 51.4179 73.2258 50.9229 72.0893 50.9229C71.8872 50.9229 71.5791 50.9532 71.1699 51.0188V63.8087H73.7915V58.2624H78.6105V63.8087H81.2321V52.413C81.2321 51.918 81.0856 51.5442 80.7927 51.2967C80.4997 51.0491 80.0905 50.9229 79.5702 50.9229H79.5652Z" fill="#424242"/>
</g>
<g id="Group_2">
<path id="Vector_8" d="M14.1831 27.439C14.4003 27.1208 15.1075 26.2721 15.1075 24.4688C15.057 24.0647 14.9964 23.6505 14.9155 23.2313C14.3144 20.0944 13.0668 17.2455 10.526 15.1441C8.22762 13.2448 5.8232 13.356 3.93906 15.6341C1.35785 18.771 0.190995 22.4382 0.605202 26.4994C0.888075 29.2474 2.70654 30.8991 5.43425 31.2073C8.59636 31.5608 12.4455 29.9798 14.1781 27.439H14.1831ZM4.2876 20.7814C7.06582 18.2608 9.64198 18.9983 11.7989 22.0543C12.2838 22.7413 12.299 23.206 11.6019 23.7414C8.36905 26.2368 4.08555 25.5346 2.77726 24.6002C2.29739 24.2567 3.1056 21.8472 4.2876 20.7763V20.7814Z" fill="#424242"/>
<path id="Vector_9" d="M86.5128 4.22759C86.1087 2.9395 85.7046 2.03532 84.8459 0.999803C84.8257 0.979598 84.8105 0.954342 84.7903 0.934136C84.6034 0.711879 84.4014 0.494673 84.1336 0.378493C83.5275 0.100671 83.0224 0.636109 82.6385 1.04526C81.1584 2.61117 79.7996 4.60643 80.1229 6.85931C80.5018 9.48599 80.8099 12.1632 81.1079 14.7545C81.2797 16.2598 81.5474 19.235 81.7393 20.7605C82.0828 23.5185 82.4718 26.6402 82.9415 29.671C83.1941 31.2925 82.8153 32.7523 81.8757 33.7828C81.0928 34.6415 80.0471 35.3184 79.0369 35.975C78.5267 36.3084 77.9963 36.6519 77.5215 37.0055C77.7235 37.0964 78.4105 37.0206 78.7894 36.9449C80.426 36.6064 82.1182 36.1165 83.3658 34.8233C85.7248 32.3785 86.7704 29.3982 86.4673 25.9583C86.1643 22.4931 85.6692 17.3559 85.1388 13.1835C85.0176 12.2187 84.9166 11.0115 85.1439 10.7084C85.7955 9.83958 87.0937 11.2792 87.4119 10.2285C87.7403 9.12735 86.8613 5.31867 86.5229 4.23264L86.5128 4.22759Z" fill="#424242"/>
<path id="Vector_10" d="M72.5418 35.6072C73.8652 34.9404 74.83 33.5866 75.5119 32.3188C76.3656 30.7326 76.8354 29.0506 76.7849 27.2472C76.7344 25.3833 76.4161 23.5042 76.1939 21.6555C75.9666 19.7814 75.714 17.9074 75.4059 16.0435C75.2291 14.9625 74.9462 13.8815 74.8098 12.8005C74.6734 11.6892 74.5623 9.87077 74.7441 9.60305C75.3604 8.70897 76.2797 10.482 76.9869 9.48182C77.8254 8.28971 77.2698 6.44094 76.7243 5.08214C75.906 3.03636 74.0875 0.864299 71.678 1.0613C71.3547 1.08656 71.0314 1.15727 70.7637 1.33407C70.5415 1.48056 70.3697 1.69776 70.2182 1.92002C69.1625 3.50108 69.2938 5.36501 69.6221 7.14812C70.102 9.75964 70.5162 12.4217 70.9153 15.0029C71.1476 16.4981 71.5315 19.4632 71.7841 20.9786C72.0063 22.3172 72.2286 23.6608 72.4963 24.9893C72.7842 26.4239 73.1227 27.8736 73.0267 29.3486C72.9459 30.6619 71.4962 30.8034 70.4455 30.5761C69.6272 30.4043 68.8846 29.8941 68.3593 29.1516C66.5762 26.6209 64.4092 22.5445 63.2726 20.3371C62.8938 19.6046 62.3281 18.2408 61.833 17.0335C61.5148 16.2708 61.2168 15.5484 61.0046 15.0787C60.8531 14.7402 60.7066 14.3866 60.555 14.0179C60.2419 13.245 59.9135 12.4469 59.4943 11.7802C59.4589 11.7246 59.4084 11.6589 59.3326 11.6539C59.2468 11.6539 59.1457 11.7297 59.0296 11.8761C58.4487 12.6439 58.1557 13.7754 57.9132 14.6847C57.5495 16.0435 57.3071 17.4982 57.9486 18.7964C58.5042 19.9229 59.1508 21.0089 59.7115 22.1404C60.1408 23.0143 60.555 23.8982 60.949 24.7873C61.1258 25.1914 61.2976 25.5854 61.5148 25.9693C61.6411 26.1915 61.9037 26.6057 61.7724 26.8684C60.9086 28.4141 60.0701 29.6163 58.7568 30.4447C57.0848 31.5055 54.6097 32.8946 52.4528 32.7077C51.4627 32.6218 50.6141 32.0813 50.2908 31.3186C50.1191 30.9195 50.1948 30.4447 50.2706 29.9851C50.3464 29.5052 50.4827 28.8889 50.2706 28.5757C50.0079 28.1868 49.1341 29.9598 49.0583 30.2225L49.0381 30.2932C48.7097 31.3944 48.4269 32.5713 48.5835 33.7735C48.7956 35.3697 49.3462 37.1882 50.311 37.9004C51.3011 38.6278 53.0286 38.8804 54.7107 38.5874C57.0494 38.1833 60.2419 37.0619 61.6007 34.6676C62.6412 32.834 62.8938 29.682 63.1767 27.6008C63.2171 27.2877 63.2676 26.9745 63.3181 26.6664L63.3585 26.3936C63.3686 26.3178 63.4141 26.2875 63.5505 26.3229C63.5707 26.3582 63.5909 26.3936 63.6161 26.4289C63.6717 26.5148 63.7323 26.6158 63.7778 26.7219C64.197 27.6463 64.6163 28.5757 65.0355 29.5001C65.4599 30.4346 65.8791 31.3641 66.3034 32.2986C66.9904 33.8139 67.6824 35.1172 69.1978 35.7334C70.2737 36.1729 71.5265 36.1274 72.5418 35.6173V35.6072Z" fill="#424242"/>
<path id="Vector_11" d="M30.1105 20.6651C28.9487 18.9274 27.7818 17.2151 26.2614 15.7653C25.7411 15.2703 24.9581 14.5227 24.448 15.0127C24.054 15.3966 23.0336 17.1393 22.8063 17.6848C22.5285 18.3465 22.382 18.8769 22.7709 19.5033C23.1548 20.1246 27.4383 23.0746 28.196 25.0698C28.1354 25.1911 28.0748 25.3072 27.9889 25.4285C26.3422 27.7824 23.5185 30.1767 21.2606 31.9295C17.9015 34.541 11.36 36.5767 9.33951 36.9656C6.49057 37.784 5.2429 37.4455 6.01575 37.9304C6.7886 38.4154 13.82 41.1077 18.8461 38.9508C23.5993 36.9101 25.9078 34.2784 28.6456 29.8181C29.3225 28.7169 29.5649 27.4995 29.6508 26.267C30.0852 26.6458 30.5297 26.9944 30.9995 27.2975C31.5147 27.6308 32.0249 27.8632 32.5502 28.0147C33.5504 28.3027 34.5354 28.4441 35.5558 28.4441C39.3594 28.4441 43.1782 27.6157 47.2243 25.9083C47.5627 25.7669 47.9062 25.6154 48.2497 25.4588C49.3862 24.9435 50.2551 24.4132 50.8259 23.4787C51.8008 21.8825 52.2604 18.7355 51.8109 16.7402C51.3259 14.5985 49.6843 12.3911 46.9313 10.1836C46.4918 9.83005 45.6129 9.38048 45.0068 9.58759C44.8451 9.64315 44.7592 9.77954 44.6683 9.92097C44.638 9.97149 44.6077 10.0169 44.5723 10.0624C43.7288 11.2141 43.254 12.7143 43.3146 14.0731C43.355 15.0076 43.8045 15.7047 44.5824 16.033C44.8148 16.129 45.0724 16.1997 45.3502 16.2351C45.7038 16.2856 46.0675 16.3159 46.4161 16.3462C46.5676 16.3614 46.7141 16.3715 46.8656 16.3866H46.8808L46.8909 16.3967C47.3506 16.7705 48.8862 18.1142 49.3256 19.6397L49.3357 19.6801L49.3004 19.7003C49.1943 19.771 49.0983 19.8367 49.0023 19.9074C48.8003 20.0488 48.6083 20.1802 48.4063 20.2913C44.7087 22.2815 39.5564 23.2665 34.2828 22.9988C33.313 22.9483 32.53 22.7715 31.8784 22.4482C31.3985 22.2108 30.954 21.9431 30.5348 21.6551C30.4438 21.3016 30.3176 20.9581 30.1155 20.655L30.1105 20.6651Z" fill="#424242"/>
<path id="Vector_12" d="M44.4758 36.3496C44.4758 36.3496 41.6522 33.627 41.0056 33.627C40.359 33.627 39.0608 35.0514 38.3082 36.0263C37.5455 35.3141 35.6916 33.627 35.1814 33.627C34.2369 33.627 31.9082 36.6476 31.9082 36.8951C31.9082 37.3801 34.6814 39.8704 35.035 39.8704C35.4795 39.8704 36.3736 39.0268 37.1161 38.1832C37.3283 37.9711 37.6313 37.6225 37.9344 37.2588C38.5608 38.1024 40.5611 39.8704 40.8591 39.8704C41.3036 39.8704 42.1977 39.0268 42.9402 38.1832C43.3393 37.7842 44.0313 36.9457 44.4758 36.3446V36.3496Z" fill="#424242"/>
<path id="Vector_13" d="M3.65019 9.95647C4.09471 9.95647 4.98879 9.1129 5.73133 8.26933C5.94349 8.05718 6.24656 7.70864 6.54459 7.34495C7.17095 8.18851 9.17127 9.95647 9.46929 9.95647C9.91381 9.95647 10.8079 9.1129 11.5504 8.26933C11.9495 7.87028 12.6415 7.03176 13.086 6.43066C13.086 6.43066 10.2623 3.70801 9.61578 3.70801C8.96922 3.70801 7.67103 5.13248 6.91839 6.10738C6.15564 5.39514 4.30181 3.70801 3.79163 3.70801C2.85209 3.70801 0.523438 6.73374 0.523438 6.98125C0.523438 7.46113 3.2966 9.95647 3.65019 9.95647Z" fill="#424242"/>
<path id="Vector_14" d="M35.287 0.883978C35.09 1.46488 34.7465 2.02557 34.4687 2.5307C33.9686 3.43489 33.2665 3.47024 32.4128 3.90466C30.9479 4.65225 29.4326 5.30892 27.9323 5.99084C26.6745 6.56164 25.4016 7.10213 24.1438 7.67798C22.7042 8.3397 21.2798 9.03173 19.8351 9.6884C19.532 9.82478 19.1885 9.86519 18.8652 9.95107C18.8905 9.62273 18.8652 9.28429 18.9511 8.97111C19.0774 8.52155 19.2946 8.10229 19.4461 7.65777C19.825 6.55154 20.906 6.46062 21.7546 6.06156C23.4316 5.27861 25.139 4.56133 26.8311 3.80868C28.4425 3.08635 30.0539 2.35896 31.6602 1.61137C32.6351 1.15675 33.5898 0.656669 34.5647 0.207103C34.8324 0.0808208 35.1506 0.0656669 35.4487 0C35.4487 0.298027 35.383 0.591002 35.287 0.883978Z" fill="#424242"/>
<path id="Vector_15" d="M56.8405 2.87879C56.886 2.83838 56.9618 2.84849 56.9971 2.90405C57.4315 3.60113 57.7245 4.49016 58.2852 4.71747C59.2803 5.12157 60.043 4.31841 60.6138 3.48495C60.8967 3.07074 61.2048 2.67674 61.4776 2.3181C61.513 2.27264 61.5736 2.26253 61.619 2.29284C62.0484 2.59592 62.7253 3.34856 63.2456 3.05054C63.4072 2.95961 63.5234 2.80302 63.6295 2.65148C64.2003 1.83823 64.6397 0.92394 65.2408 0.130885C65.3014 0.0500643 65.4277 0.0904747 65.4277 0.191501C65.4277 0.620861 65.5439 1.24722 65.5237 1.49474C65.3722 3.22228 64.3316 5.43475 62.9273 6.49047C62.6546 6.69758 62.3464 6.87943 62.008 6.92994C61.316 7.03096 60.9472 6.45512 60.2097 6.71273C58.9722 7.14714 58.4115 8.7282 56.5627 8.37966C56.2596 8.3241 55.9616 8.20792 55.7393 7.99576C54.5119 6.81376 55.7545 3.82339 56.8405 2.87879Z" fill="#424242"/>
<path id="Vector_16" d="M66.9394 37.385C66.7424 37.9659 66.3989 38.5265 66.1211 39.0317C65.621 39.9359 64.9188 39.9712 64.0652 40.4056C62.6003 41.1532 61.0849 41.8099 59.5847 42.4918C58.3269 43.0626 57.054 43.6031 55.7962 44.179C54.3566 44.8407 52.9321 45.5327 51.4874 46.1894C51.1843 46.3258 50.8409 46.3662 50.5176 46.452C50.5428 46.1237 50.5176 45.7853 50.6034 45.4721C50.7297 45.0225 50.9469 44.6033 51.0985 44.1587C51.4773 43.0525 52.5583 42.9616 53.4069 42.5625C55.084 41.7796 56.7913 41.0623 58.4835 40.3097C60.0948 39.5873 61.7062 38.8599 63.3125 38.1123C64.2874 37.6577 65.2421 37.1576 66.217 36.7081C66.4847 36.5818 66.803 36.5666 67.101 36.501C67.101 36.799 67.0353 37.092 66.9394 37.385Z" fill="#424242"/>
</g>
</g>
<defs>
<clipPath id="clip0_7001_4434">
<rect width="86.9531" height="64" fill="white" transform="translate(0.523438)"/>
</clipPath>
</defs>
</svg>
